<svg xmlns="http://www.w3.org/2000/svg" width="50pt" height="50pt" viewBox="0 0 50 50"><path d="M31.25 32.813c0 .863-.7 1.562-1.563 1.562h-9.375c-.863 0-1.562-.7-1.562-1.563v-4.687H0v14.063c0 2.5 2.188 4.687 4.688 4.687h40.624c2.5 0 4.688-2.188 4.688-4.688V28.126H31.25zM45.313 12.5H37.5V7.812c0-2.5-2.188-4.687-4.688-4.687H17.188c-2.5 0-4.688 2.188-4.688 4.688V12.5H4.687C2.188 12.5 0 14.688 0 17.188V25h50v-7.813c0-2.5-2.188-4.687-4.688-4.687zm-14.063 0h-12.5V9.375h12.5zm0 0" fill="#ffdf9e" id="surface1"/></svg>