<svg xmlns="http://www.w3.org/2000/svg" width="50pt" height="50pt" viewBox="0 0 50 50"><path d="M49.219 25c0 13.375-10.844 24.219-24.219 24.219C11.625 49.219.781 38.375.781 25 .781 11.625 11.625.781 25 .781 38.375.781 49.219 11.625 49.219 25zm-27.02 12.824l17.969-17.969c.61-.609.61-1.601 0-2.21l-2.211-2.207a1.558 1.558 0 00-2.21 0L21.093 30.09l-6.84-6.844a1.565 1.565 0 00-2.211 0l-2.211 2.211c-.61.61-.61 1.602 0 2.211l10.156 10.156c.61.61 1.602.61 2.211 0zm0 0" fill="#ffdf9e" id="surface1"/></svg>