<svg xmlns="http://www.w3.org/2000/svg" width="50pt" height="50pt" viewBox="0 0 50 50"><path d="M50 0C44.945.348 9.418 3.73 6.934 28.086c-.301 2.605-.473 5.219-.582 7.836l17.464-17.45a1.57 1.57 0 012.215 0c.61.61.61 1.602 0 2.212L.688 46a2.336 2.336 0 000 3.313 2.353 2.353 0 003.32 0l5.578-5.57c4.11-.016 8.219-.25 12.3-.72 5.223-.53 9.473-2.586 12.946-5.523h-9.86l14.337-4.773c1.097-1.454 2.09-3 2.972-4.602H34.36l10.407-5.195C48.856 12.977 49.824 2.563 50 0zm0 0" fill="#ffdf9e" id="surface1"/></svg>